<?xml version="1.0" encoding="UTF-8"?><svg xmlns="http://www.w3.org/2000/svg" xmlns:xlink="http://www.w3.org/1999/xlink" height="2916.5" preserveAspectRatio="xMidYMid meet" version="1.0" viewBox="159.3 40.8 2815.6 2916.5" width="2815.6" zoomAndPan="magnify"><g><g id="change1_1"><path d="M2569.8,1739.2l405.1,408l-816,810.1l-405.1-408c-223.7-225.3-222.4-589.4,2.9-813.1 c73.1-72.6,160.9-121.5,253.7-146.7c50.2-13.7,101.8-20.4,153.5-20.2C2311,1569.9,2457.9,1626.6,2569.8,1739.2z" fill="#ffdf76"/></g><g id="change2_1"><path d="M2890.7,2062.5l84.1,84.7l-816,810.1l-405.1-408c-223.7-225.3-222.4-589.4,2.9-813.1 c73.1-72.6,160.9-121.5,253.7-146.7c91,30.3,162.8,90.9,60.1,211.2c-195.1,228.7-259.2,314.5-188.5,443.3 C1950.3,2368.3,2538.9,2614.7,2890.7,2062.5z" fill="#fdb15b" opacity=".44"/></g><g id="change3_1"><path d="M1268,240.2c44.6,49.7,80.3,106.2,106,168.1l75.6,182l3.4,8.2l-78,32.4c-105,43.6-225.5-6.1-269.2-111.1 c-15-36.1-37.1-68.9-64.4-96.5c-19.6-19.7-41.9-36.8-66.4-50.5c-58.6-32.8-127.4-45.1-193.7-34.6 c-97.9,15.5-181.8,78.1-224.5,167.6L491,644c-26.8,56.2-35.4,118.4-25,179.8c10.4,61.4,39.2,117.2,83,161.4 c90.7,91.3,197,162.4,316.1,211.3c119.1,48.8,244.7,72.9,373.4,71.6l194.7-2c39.2-0.4,76.9,15.1,104.6,42.9l447.9,451.2 c-13.6,36.2-30.1,66.2-47.9,90.9c-69.9,97.5-158.2,113.7-158.2,113.7L1374.8,1557l-133.3,1.4c-167.7,1.7-331.4-29.7-486.6-93.3 c-155.2-63.7-293.8-156.3-411.9-275.3c-86.3-86.9-142.7-196.6-163.2-317.3c-20.5-120.7-3.5-242.9,49.2-353.4l65.9-138.3 C378.6,204.8,543.6,81.6,736.1,51.3c66.2-10.5,133-9.6,198.7,2.4c64,11.7,125.2,33.8,182.1,65.6 C1173.7,151.1,1224.6,191.8,1268,240.2z" fill="#abb0b0"/></g><g id="change4_1"><path d="M1449.6,590.2l3.4,8.2l-78,32.4c-105,43.6-225.5-6.1-269.2-111.1c-15-36.1-37.1-68.9-64.4-96.5 c-19.6-19.7-41.9-36.8-66.4-50.5c-58.6-32.8-127.4-45.1-193.7-34.6c-97.9,15.5-181.8,78.1-224.5,167.6L490.9,644 c-26.8,56.2-35.4,118.4-25,179.8c10.4,61.4,39.2,117.2,83,161.4c90.7,91.3,197,162.4,316.1,211.3c119.1,48.8,244.7,72.9,373.4,71.6 l194.7-2c39.2-0.4,76.9,15.1,104.6,42.9l447.9,451.2c-13.6,36.2-30.1,66.2-47.9,90.9c-149.1-150.8-438.4-437.7-438.4-437.7 S500,1476.8,363.8,816.1C328.1,643.4,391.3,464.4,530,355.6c100-78.5,244.1-127,438.1-44.7c69,29.3,130.5,73.5,181.5,128.4 C1200.1,493.7,1299.5,575.4,1449.6,590.2z" fill="#707575" opacity=".22"/></g><g id="change5_1"><path d="M2020.2,1900.5c-31.5,35.4-66.2,74.2-60.6,117.3c4.7,36,37.7,75.7,75.6,81.7c81.9,13,179.6-132.4,216.4-251.7 c21.4-69.3,58.6-151.3,17.4-201.6c-32.2-39.3-107.1-55.8-132.2-25.5c-15.1,18.2,13.5,40.4,9.8,93.5c-4.2,61.1-46.6,108.2-68.9,133 C2051.7,1876,2047.5,1869.9,2020.2,1900.5z" fill="#fff" opacity=".22"/></g><g id="change5_2" opacity=".22"><path d="M675.3,210.3c2.8-1.2,5.6-2.4,8.4-3.5c-4.4,1.8-8.8,3.5-13.2,5.3c36.7-14.7,75.2-24.7,114.4-29.7 c-4.6,0.6-9.3,1.2-13.9,1.7c12.1-1.5,24.2-2.5,36.3-3.1c14.5-0.7,28.4-5.5,38.9-16c9.6-9.5,16.8-25.1,16.2-38.8 c-0.6-14.2-5.2-29-16-38.9c-10.4-9.6-24.2-16.9-38.8-16.2c-31.9,1.5-64,5.6-95.2,12.7c-31.4,7.2-61.5,18-91.2,30.6 c-12.3,5.2-22.9,21.4-26.1,33.8c-3.4,12.8-1.9,29.7,5.2,41.1c7.6,12.2,19.3,23,33.8,26.1c4.6,0.6,9.3,1.2,13.9,1.8 C657.8,217.3,666.9,215,675.3,210.3L675.3,210.3z" fill="#fff"/></g><g id="change5_3" opacity=".22"><path d="M943.7,182.3c10,0,19.8,0.6,29.7,1.9c-4.6-0.6-9.3-1.2-13.9-1.8c23.3,3.1,45.9,9.5,67.6,18.4 c-4.4-1.8-8.8-3.6-13.2-5.4c29.3,12.2,56.4,28.6,81.6,47.9c-3.9-3-7.8-6-11.7-9c50.2,38.9,91.5,87.4,132.3,135.6 c8.7,10.2,25.8,16.2,38.8,16.2c13.5,0,29.6-5.9,38.9-16c9.6-10.5,16.8-24.2,16.2-38.8c-0.6-15.2-6.1-27.3-16-38.9 c-36.1-42.7-72.5-85.7-115.3-121.9c-43.4-36.7-91-66.5-145.4-84c-28.6-9.2-59.2-13.9-89.2-14c-14.1,0-28.9,6-38.9,16 c-9.6,9.5-16.8,25.1-16.2,38.8C890.1,156.9,913,182.3,943.7,182.3L943.7,182.3z" fill="#fff"/></g></g></svg>