<?xml version="1.0" encoding="UTF-8"?><svg xmlns="http://www.w3.org/2000/svg" xmlns:xlink="http://www.w3.org/1999/xlink" height="1639.8" preserveAspectRatio="xMidYMid meet" version="1.0" viewBox="599.7 408.4 1253.2 1639.8" width="1253.2" zoomAndPan="magnify"><g fill="#3f4143" id="change1_1"><path d="M 1776.019531 1275.199219 L 1590.257812 1509.101562 L 1672.828125 1502.230469 C 1617.8125 1639.8125 1559.578125 1653.582031 1357.105469 1653.582031 C 1274.570312 1653.582031 1280.695312 662.976562 1280.695312 662.976562 L 1230.273438 657.03125 C 1230.273438 656.441406 1230.273438 656.066406 1230.273438 656.066406 L 1226.261719 656.53125 L 1222.246094 656.066406 C 1222.246094 656.066406 1222.246094 656.441406 1222.246094 657.03125 L 1171.800781 662.976562 C 1171.800781 662.976562 1177.925781 1653.582031 1095.398438 1653.582031 C 892.921875 1653.582031 834.695312 1639.8125 779.675781 1502.230469 L 862.234375 1509.101562 L 676.484375 1275.199219 L 599.65625 1563.320312 L 676.484375 1533.179688 C 676.484375 1533.179688 723.246094 1820.289062 1020.476562 1904.652344 C 1080.609375 1921.722656 1201.445312 1950.25 1215.28125 2031.699219 C 1215.324219 2048.191406 1237.171875 2048.191406 1237.230469 2031.699219 C 1251.050781 1950.25 1371.882812 1921.722656 1432.015625 1904.652344 C 1729.242188 1820.289062 1776.019531 1533.179688 1776.019531 1533.179688 L 1852.835938 1563.320312 L 1776.019531 1275.199219" fill="inherit"/><path d="M 1333.78125 826.75 L 828.964844 826.75 L 916.21875 905.019531 L 1536.308594 905.019531 L 1623.539062 826.75 L 1333.78125 826.75" fill="inherit"/><path d="M 1226.257812 477.226562 C 1184.558594 477.226562 1150.609375 511.171875 1150.609375 552.882812 C 1150.609375 594.628906 1184.558594 628.550781 1226.257812 628.550781 C 1267.976562 628.550781 1301.910156 594.628906 1301.910156 552.882812 C 1301.910156 511.171875 1267.976562 477.226562 1226.257812 477.226562 Z M 1226.257812 697.347656 C 1146.597656 697.347656 1081.789062 632.550781 1081.789062 552.882812 C 1081.789062 473.226562 1146.597656 408.429688 1226.257812 408.429688 C 1305.898438 408.429688 1370.703125 473.226562 1370.703125 552.882812 C 1370.703125 632.550781 1305.898438 697.347656 1226.257812 697.347656" fill="inherit"/></g></svg>