<?xml version="1.0" encoding="UTF-8"?><svg xmlns="http://www.w3.org/2000/svg" xmlns:xlink="http://www.w3.org/1999/xlink" height="244.4" preserveAspectRatio="xMidYMid meet" version="1.0" viewBox="-0.0 -1.7 349.8 244.4" width="349.8" zoomAndPan="magnify"><g id="change1_1"><path d="M330.89,62.38c-1.96,21.94-7.4,71.55-8.59,82.36c0,0,16.82,2.98,14.4,15.52 c-3.57,18.51-48,2.55-126.89,22.98c-65.23,16.89-112.69,59.39-125.96,58.12s-15.18-12.42-2.82-24.16 c-13.61-12.98-43.31-51.56-56.91-69.51c-2.47,1.6-5.33,2.51-8.25,2.41C7.67,150.73,0.29,144.15,0,135.25c-0.01-0.37,0-0.74,0.03-1.1 c0.78-8.64,7.66-15.54,15.91-15.56c8.65,0.3,15.64,7.18,15.94,15.68c0.01,0.38,0,0.76-0.04,1.13c-0.16,1.59-0.59,3.14-1.23,4.6 c12.52,1.21,31.01,2.03,43.62-1.71c14.33-4.25,17.14-21.73,17.51-32.07c-1.08,0.15-2.21,0.17-3.38,0.04 c-8.36,0.84-15.48-6.52-15.23-15.08c0.23-8.9,6.59-15.14,15.5-15.05c8.39-0.63,15.56,6.35,15.51,15.54 c-0.29,4.46-2.45,8.9-5.92,11.71c7.84,4.49,22.26,9.06,41.37-0.83c17.29-8.94,22.74-32.84,24.29-51.2c-8-2.9-15.8-13.48-18.6-23.42 c-0.36-1.27-0.58-2.58-0.65-3.89c-0.38-7.15,1.87-13.83,5.53-18.46c4.38-5.55,12.14-7.32,18.22-3.71 c5.27,3.12,9.51,9.15,11.66,16.36c0.4,1.34,0.64,2.73,0.73,4.13c0.6,8.86-1.16,19.3-5.33,25.2c7.83,11.94,18.89,25.96,30.53,31.5 c15,7.15,27.38-6.67,33.72-16.15c-6.84-1.77-11.68-8.13-11.72-15.86c-0.43-8.4,6.86-15.75,15.46-14.97 c8.83-0.8,15.98,6.66,16.13,15.92c-0.45,6.79-4.68,11.92-10.94,14.21c4.69,5.7,13.88,13,30.89,14.81 c19.32,2.05,36.12-9.64,45.11-17.58c-3.75-2.8-6.2-7.08-5.75-11.82c-0.94-7.57,4.86-13.44,11.85-15.51 c2.45-0.73,5.07-0.84,7.51-0.09c6.21,1.91,10.81,7.95,11.12,14.94c0.4,8.83-7.45,15.78-15.45,15.83 C332.89,62.76,331.88,62.62,330.89,62.38z" fill="#FFAA1E"/></g><g id="change2_1"><path d="M263.01,103.65c1.89,3.51,2.12,7.72,0.63,11.42c-2.19,5.42-7.35,8.26-13.94,8.04 c-6.89,0.41-13.39-6.03-12.83-12.92c0.11-8.14,5.52-14.77,13.25-14.37C256.25,95.83,260.68,99.33,263.01,103.65z M297.47,101.59 c-0.41-0.06-0.83-0.07-1.24-0.02c-4.58,0.53-7.94,4.08-7.46,8.24c-0.49,3.97,3.07,7.78,7.72,7.52c4.65,0.45,8.2-2.92,8.15-7.7 C304.62,105.77,301.57,102.22,297.47,101.59z M112.59,154.43c3.21,6.19,12.72,8.53,19.72,3.73c5.47-3.89,6.91-12.32,3.53-18.45 c-3.17-5.86-9.39-7.78-15.11-6.83c-2.78,0.46-5.33,1.85-7.04,4.1C110.09,141.7,109.3,148.63,112.59,154.43z M78.9,176.53 c2.09,2.2,5.75,2.94,8.98,1.96c1.05-0.32,2-0.86,2.77-1.63c2.74-2.7,3.2-6.73,1.24-10.23c-1.77-3.06-5.19-4.11-8.92-3.41 c-2.34,0.44-4.36,1.95-5.17,4.19c-0.76,2.1-0.79,4.69-0.06,7.07C77.99,175.23,78.35,175.96,78.9,176.53z M166.02,12 c-3.54-2.1-8.05-1.07-10.6,2.16c-2.13,2.69-3.44,6.58-3.22,10.74c0.04,0.77,0.17,1.53,0.38,2.27c2.01,7.14,8.47,14.86,14.08,14 c4.88-1.16,7.05-10.09,6.56-17.25c-0.06-0.81-0.19-1.62-0.43-2.4C171.55,17.32,169.08,13.82,166.02,12z" fill="#10B9BB"/></g><g id="change3_1"><path d="M203.64,92.11c8.78,3.45,14.05,14.36,10.5,27.66c-0.29,1.1-0.68,2.18-1.18,3.2 c-7.44,15.41-17.7,26-17.79,24.75c-1.07,0.65-17-3.38-30.58-13.85c-0.58-0.45-1.13-0.93-1.63-1.47c-7.8-8.29-8.74-17.43-5.97-24.53 c2.51-6.42,9.11-9.43,15.99-8.91c5.43,0.41,10.79,5.36,9.89,5.62c0.81-3.33,3.22-9.65,12.1-12.71 C197.78,90.93,200.87,91.02,203.64,92.11z" fill="#FF00CE"/></g><g id="change4_1"><path d="M83.53,216.59c-1.37,1.37-3.49-0.75-2.12-2.12c0.58-0.58,1.17-1.14,1.78-1.69 c7.29-6.63,15.88-11.91,24.4-16.79c12.7-7.26,25.97-13.51,39.48-19.1c16.54-6.85,33.52-12.65,50.77-17.41 c19.27-5.32,38.9-9.33,58.73-11.84c21.01-2.66,42.26-3.59,63.41-2.37c1.92,0.11,1.93,3.11,0,3c-2.63-0.15-5.25-0.27-7.88-0.36 c-20.86-0.69-41.79,0.66-62.44,3.67c-19.46,2.84-38.7,7.13-57.57,12.65c-16.73,4.9-33.21,10.76-49.22,17.66 c-12.78,5.5-25.33,11.63-37.3,18.74C97.8,205.25,89.91,210.18,83.53,216.59L83.53,216.59z" fill="#13111F"/></g><g id="change5_1"><path d="M163.09,20.8c-3.22,0-3.22-5,0-5C166.31,15.8,166.3,20.8,163.09,20.8L163.09,20.8z M126.66,141.31 c3.22,0,3.22-5,0-5C123.44,136.31,123.44,141.31,126.66,141.31L126.66,141.31z M85.81,170.59c3.22,0,3.22-5,0-5 C82.59,165.59,82.59,170.59,85.81,170.59L85.81,170.59z M255.68,104.89c3.22,0,3.22-5,0-5C252.46,99.89,252.46,104.89,255.68,104.89 L255.68,104.89z M298.23,110c3.22,0,3.22-5,0-5C295.02,105,295.01,110,298.23,110L298.23,110z M203.8,106.81 c0.23,0.63,0.42,1.27,0.57,1.92c0.08,0.33,0.13,0.66,0.2,0.98c0.05,0.3,0.05,0.33,0.02,0.08c0.02,0.17,0.04,0.33,0.05,0.5 c0.06,0.67,0.08,1.34,0.07,2.01c-0.01,0.33-0.03,0.67-0.05,1c-0.01,0.09-0.13,1.04-0.06,0.58c-0.44,2.8-1.22,4.72-2.89,6.98 c-0.78,1.06-0.21,2.84,0.9,3.42c1.31,0.69,2.59,0.23,3.42-0.9c3.72-5.03,4.71-12.03,2.6-17.91c-0.44-1.23-1.72-2.18-3.08-1.75 C204.34,104.13,203.33,105.5,203.8,106.81L203.8,106.81z M98.7,87.58c-0.28-1.61-1.11-3.09-2.17-4.31 c-1.07-1.23-2.52-2.12-4.06-2.62c-0.6-0.2-1.39-0.06-1.93,0.25c-0.52,0.3-1.01,0.9-1.15,1.49c-0.31,1.37,0.41,2.64,1.75,3.08 c0.17,0.05,0.33,0.11,0.49,0.18c-0.2-0.08-0.4-0.17-0.6-0.25c0.53,0.22,1.03,0.52,1.48,0.87c-0.17-0.13-0.34-0.26-0.51-0.39 c0.45,0.36,0.86,0.76,1.22,1.22c-0.13-0.17-0.26-0.34-0.39-0.51c0.35,0.46,0.64,0.95,0.87,1.48c-0.08-0.2-0.17-0.4-0.25-0.6 c0.19,0.46,0.34,0.94,0.42,1.44c0.1,0.58,0.66,1.21,1.15,1.49c0.54,0.31,1.33,0.45,1.93,0.25c0.6-0.2,1.19-0.57,1.49-1.15 c0.08-0.2,0.17-0.4,0.25-0.6C98.82,88.47,98.82,88.02,98.7,87.58L98.7,87.58z M26.14,131.67c-0.07-0.55-0.13-1.1-0.29-1.63 c-0.15-0.52-0.37-1.03-0.61-1.52c-0.37-0.78-0.91-1.51-1.49-2.15c-1.17-1.29-2.82-2.28-4.53-2.66c-0.65-0.14-1.34-0.09-1.93,0.25 c-0.52,0.3-1.01,0.9-1.15,1.49c-0.15,0.64-0.11,1.36,0.25,1.93c0.34,0.53,0.86,1.01,1.49,1.15c0.36,0.08,0.71,0.19,1.06,0.33 c-0.2-0.08-0.4-0.17-0.6-0.25c0.54,0.23,1.04,0.52,1.5,0.88c-0.17-0.13-0.34-0.26-0.51-0.39c0.46,0.36,0.87,0.77,1.23,1.24 c-0.13-0.17-0.26-0.34-0.39-0.51c0.35,0.46,0.65,0.97,0.87,1.5c-0.08-0.2-0.17-0.4-0.25-0.6c0.2,0.49,0.34,1,0.42,1.52 c-0.03-0.22-0.06-0.44-0.09-0.66c0,0.03,0.01,0.05,0.01,0.08c-0.01,0.34,0.06,0.67,0.22,0.96c0.1,0.31,0.27,0.58,0.52,0.8 c0.43,0.43,1.15,0.76,1.77,0.73c0.65-0.03,1.32-0.24,1.77-0.73C25.82,132.99,26.22,132.31,26.14,131.67L26.14,131.67z M253.09,46.91 c0.23-3.79-2.52-7.44-6.13-8.47c-0.62-0.18-1.37-0.07-1.93,0.25c-0.52,0.3-1.01,0.9-1.15,1.49c-0.3,1.33,0.4,2.69,1.75,3.08 c0.22,0.06,0.44,0.14,0.65,0.23c-0.2-0.08-0.4-0.17-0.6-0.25c0.45,0.19,0.87,0.44,1.26,0.73c-0.17-0.13-0.34-0.26-0.51-0.39 c0.41,0.32,0.77,0.68,1.1,1.09c-0.13-0.17-0.26-0.34-0.39-0.51c0.34,0.43,0.61,0.9,0.83,1.41c-0.08-0.2-0.17-0.4-0.25-0.6 c0.2,0.48,0.34,0.97,0.42,1.49c-0.03-0.22-0.06-0.44-0.09-0.66c0.05,0.37,0.06,0.74,0.04,1.12c-0.04,0.62,0.31,1.34,0.73,1.77 c0.43,0.43,1.15,0.76,1.77,0.73c0.65-0.03,1.32-0.24,1.77-0.73C252.82,48.17,253.05,47.6,253.09,46.91L253.09,46.91z M342.76,49.62 c0.68-2.97,0.14-6.3-1.72-8.75c-0.41-0.54-0.81-0.96-1.49-1.15c-0.6-0.16-1.4-0.09-1.93,0.25c-0.53,0.34-1,0.86-1.15,1.49 c-0.14,0.61-0.15,1.4,0.25,1.93c0.42,0.55,0.77,1.15,1.04,1.79c-0.08-0.2-0.17-0.4-0.25-0.6c0.28,0.68,0.47,1.38,0.57,2.1 c-0.03-0.22-0.06-0.44-0.09-0.66c0.09,0.73,0.1,1.45,0,2.18c0.03-0.22,0.06-0.44,0.09-0.66c-0.04,0.25-0.08,0.5-0.14,0.75 c-0.15,0.65-0.09,1.34,0.25,1.93c0.3,0.52,0.9,1.01,1.49,1.15C340.96,51.66,342.45,50.99,342.76,49.62L342.76,49.62z M172.45,7.3 c-0.57-0.78-1.17-1.5-1.93-2.1c-0.45-0.35-0.9-0.7-1.39-0.99c-0.5-0.3-1.04-0.52-1.58-0.74c-0.33-0.1-0.66-0.12-1-0.04 c-0.33,0.02-0.64,0.11-0.93,0.3c-0.29,0.16-0.53,0.37-0.7,0.64c-0.22,0.24-0.37,0.52-0.45,0.85c-0.15,0.64-0.11,1.36,0.25,1.93 c0.13,0.17,0.26,0.34,0.39,0.51c0.31,0.31,0.68,0.52,1.1,0.64c0.02,0.01,0.03,0.01,0.05,0.02c-0.2-0.08-0.4-0.17-0.6-0.25 c0.64,0.27,1.24,0.63,1.8,1.05c-0.17-0.13-0.34-0.26-0.51-0.39c0.54,0.42,1.02,0.9,1.43,1.43c-0.13-0.17-0.26-0.34-0.39-0.51 c0.04,0.06,0.09,0.12,0.13,0.18c0.16,0.29,0.37,0.53,0.64,0.7c0.24,0.22,0.52,0.37,0.85,0.45c0.33,0.1,0.66,0.12,1,0.04 c0.33-0.02,0.64-0.11,0.93-0.3c0.53-0.34,1-0.86,1.15-1.49c0.03-0.22,0.06-0.44,0.09-0.66C172.79,8.11,172.68,7.69,172.45,7.3 L172.45,7.3z M322.15,157.83c-17.12-0.53-34.28,0.17-51.29,2.13c-4.92,0.57-9.83,1.24-14.73,2c-1.34,0.21-2.07,1.88-1.75,3.08 c0.39,1.42,1.74,1.95,3.08,1.75c16.62-2.59,33.43-3.95,50.26-4.11c4.81-0.05,9.62,0.01,14.43,0.16 C325.37,162.93,325.36,157.93,322.15,157.83L322.15,157.83z M245.81,168.38c3.22,0,3.22-5,0-5 C242.59,163.38,242.59,168.38,245.81,168.38L245.81,168.38z M150.13,192.47c-15.91,6.09-31.34,13.41-46.1,21.93 c-2.79,1.61-0.27,5.93,2.52,4.32c14.38-8.3,29.39-15.49,44.91-21.43c1.26-0.48,2.13-1.68,1.75-3.08 C152.87,193.01,151.39,191.99,150.13,192.47L150.13,192.47z M309.18,76.62c-1.79,4.31-5.46,10.83-11.78,12.84 c-0.83,0.26-0.97,1.36-0.22,1.78c3.23,1.81,8.68,5.72,10.75,12.32c0.29,0.91,1.57,0.89,1.85-0.02c1.36-4.34,4.53-9.99,11.94-11.99 c0.89-0.24,0.95-1.51,0.08-1.83c-3.93-1.5-9.17-4.96-10.78-12.91C310.84,75.86,309.55,75.73,309.18,76.62z M202.61,84.8 c0.9,4.46,3.84,6.4,6.04,7.24c0.48,0.18,0.45,0.89-0.05,1.03c-4.15,1.12-5.93,4.29-6.69,6.72c-0.16,0.51-0.88,0.52-1.04,0.01 c-1.16-3.7-4.22-5.89-6.03-6.9c-0.42-0.24-0.34-0.85,0.12-1c3.55-1.13,5.6-4.78,6.6-7.2C201.78,84.2,202.51,84.27,202.61,84.8z M106.11,191.32c0.9,4.46,3.84,6.4,6.04,7.24c0.48,0.18,0.45,0.89-0.05,1.03c-4.15,1.12-5.93,4.29-6.69,6.72 c-0.16,0.51-0.88,0.52-1.04,0.01c-1.16-3.7-4.22-5.89-6.03-6.9c-0.42-0.24-0.34-0.85,0.12-1c3.55-1.13,5.6-4.78,6.6-7.2 C105.28,190.72,106.01,190.79,106.11,191.32z M92.39,137.04c1.27,5.26,5.25,7.58,7.81,8.55c0.54,0.2,0.49,0.96-0.06,1.13 c-5.61,1.7-7.67,6.46-8.44,9.62c-0.14,0.6-0.98,0.6-1.15,0.01c-1.81-6.05-5.13-8.92-7.23-10.19c-0.46-0.28-0.36-0.99,0.17-1.1 c4.69-0.92,6.81-4.93,7.75-8.06C91.42,136.41,92.24,136.44,92.39,137.04z M275.73,108.69c1.29,5.35,5.41,7.8,8.12,8.85 c0.62,0.24,0.63,1.1,0.01,1.36c-4.73,1.99-7.01,7.84-8.01,11.49c-0.2,0.72-1.21,0.71-1.42,0c-1.88-6.3-5.04-9.32-6.93-10.64 c-0.47-0.33-0.4-1.05,0.12-1.27c3.34-1.43,5.53-6.38,6.69-9.85C274.55,107.93,275.56,107.97,275.73,108.69z M64.15,161.6 c1.29,5.35,5.41,7.8,8.12,8.85c0.62,0.24,0.63,1.1,0.01,1.36c-4.73,1.99-7.01,7.84-8.01,11.49c-0.2,0.72-1.21,0.71-1.42,0 c-1.88-6.3-5.04-9.32-6.93-10.64c-0.47-0.33-0.4-1.05,0.12-1.27c3.34-1.43,5.53-6.38,6.69-9.85 C62.97,160.84,63.98,160.88,64.15,161.6z M309.54,117.73c1.07,4.46,4.51,6.5,6.77,7.38c0.52,0.2,0.52,0.92,0.01,1.14 c-3.94,1.66-5.85,6.54-6.68,9.58c-0.16,0.6-1.01,0.6-1.19,0c-1.57-5.26-4.2-7.78-5.78-8.87c-0.39-0.27-0.34-0.87,0.1-1.06 c2.79-1.19,4.61-5.32,5.58-8.22C308.56,117.1,309.4,117.13,309.54,117.73z" fill="#FFFBFF"/></g></svg>